<svg width="1055" height="176" viewBox="0 0 1055 176" fill="none" xmlns="http://www.w3.org/2000/svg">
<path d="M35.3571 17.178H28.3373C31.621 10.578 34.4248 7.41721 43.7545 4.7188C45.3116 4.26824 46.1923 3.11805 45.8607 1.97007C45.5294 0.824299 44.079 0 42.3939 0H42.3869C22.9231 0.0240492 11.7428 5.44003 3.81504 18.6781C1.28453 22.8362 0 27.2863 0 31.902C0 39.0004 3.09375 42.866 7.81039 47.9536C8.45955 48.6557 9.58179 49.08 10.7832 49.08H35.3571C41.2063 49.08 45.9643 45.7776 45.9643 41.718V24.54C45.9643 20.4803 41.2063 17.178 35.3571 17.178ZM88.3929 17.178H81.3731C84.6567 10.578 87.4605 7.41721 96.7902 4.7188C98.3473 4.26824 99.2281 3.11805 98.8964 1.97007C98.5651 0.824299 97.1148 0 95.4296 0H95.4226C75.9588 0.0240492 64.7785 5.44003 56.8508 18.6781C54.3202 22.8362 53.0357 27.2863 53.0357 31.902C53.0357 39.0004 56.1295 42.866 60.8461 47.9536C61.4953 48.6557 62.6175 49.08 63.8189 49.08H88.3929C94.242 49.08 99 45.7776 99 41.718V24.54C99 20.4803 94.242 17.178 88.3929 17.178Z" fill="#B6BBC4"/>
<path d="M1019.64 158.404L1026.66 158.404C1023.38 165.004 1020.58 168.165 1011.25 170.863C1009.69 171.314 1008.81 172.464 1009.14 173.612C1009.47 174.758 1010.92 175.582 1012.61 175.582L1012.61 175.582C1032.08 175.558 1043.26 170.142 1051.18 156.904C1053.72 152.746 1055 148.296 1055 143.68C1055 136.582 1051.91 132.716 1047.19 127.628C1046.54 126.926 1045.42 126.502 1044.22 126.502L1019.64 126.502C1013.79 126.502 1009.04 129.804 1009.04 133.864L1009.04 151.042C1009.04 155.102 1013.79 158.404 1019.64 158.404ZM966.607 158.404L973.627 158.404C970.343 165.004 967.54 168.165 958.21 170.863C956.653 171.314 955.772 172.464 956.104 173.612C956.435 174.758 957.885 175.582 959.57 175.582L959.577 175.582C979.041 175.558 990.221 170.142 998.149 156.904C1000.68 152.746 1001.96 148.296 1001.96 143.68C1001.96 136.582 998.871 132.716 994.154 127.628C993.505 126.926 992.383 126.502 991.181 126.502L966.607 126.502C960.758 126.502 956 129.804 956 133.864L956 151.042C956 155.102 960.758 158.404 966.607 158.404Z" fill="#B6BBC4"/>
</svg>
